<svg preserveAspectRatio="xMidYMid meet" viewBox="12.486388384754992 4.68 155.14337568058076 150.384" xmlns="http://www.w3.org/2000/svg" version="1.0" style="max-height: 500px" width="155.14337568058076px" height="150.384px" transform="rotate(0) scale(1, 1)">

<g stroke="none" fill="#ffffff" transform="translate(0.000000,156.000000) scale(0.100000,-0.100000)">
<path d="M633 1492 c-6 -4 -16 -19 -22 -34 -8 -22 -6 -31 10 -52 17 -22 29&#10;-26 70 -26 l49 0 0 -87 0 -86 -301 -521 c-254 -437 -302 -526 -302 -559 0 -21&#10;5 -43 11 -49 8 -8 81 34 257 146 136 86 251 154 256 151 5 -4 9 -12 9 -18 -1&#10;-7 -88 -79 -196 -162 -107 -82 -204 -158 -217 -167 -21 -17 -18 -18 93 -18&#10;l115 0 120 145 c65 80 123 145 127 145 28 0 12 -43 -56 -154 -42 -68 -76 -126&#10;-76 -130 0 -3 222 -6 493 -6 449 0 495 2 526 18 42 21 74 76 68 117 -3 17 -69&#10;140 -147 274 -79 138 -139 251 -136 260 2 9 17 45 32 81 23 56 27 79 27 160 0&#10;123 -7 137 -79 146 -94 11 -194 0 -260 -29 l-59 -27 27 24 c16 14 36 29 45 35&#10;17 9 15 16 -20 80 -36 67 -38 75 -35 148 l3 78 35 3 c61 4 76 11 88 37 16 35&#10;15 42 -8 65 -19 19 -33 20 -277 20 -142 0 -263 -4 -270 -8z m740 -536 c8 -58&#10;-7 -146 -36 -209 -13 -30 -58 -89 -103 -137 -43 -47 -90 -98 -104 -113 l-24&#10;-28 37 16 38 16 -7 -63 c-4 -35 -10 -73 -13 -85 -6 -21 -143 -153 -160 -153&#10;-8 0 -68 69 -84 97 -4 6 11 40 32 75 50 82 127 238 109 218 -8 -8 -61 -68&#10;-117 -132 l-103 -118 -47 0 c-26 0 -52 5 -59 12 -7 7 -12 37 -12 68 l1 55 130&#10;113 c72 61 128 112 125 112 -12 0 -151 -73 -223 -116 -39 -24 -75 -44 -80 -44&#10;-4 0 -30 20 -58 44 l-49 43 51 59 c81 94 87 98 171 110 43 6 79 10 81 8 3 -3&#10;-3 -21 -13 -41 -15 -32 -5 -24 86 59 57 52 118 105 136 118 51 35 139 59 218&#10;59 l71 1 6 -44z"/>
<path d="M1137 870 c-37 -29 -37 -80 -1 -109 35 -27 65 -27 92 2 62 65 -21&#10;162 -91 107z"/>
</g>
</svg>